<svg width="50" height="50" viewBox="0 0 50 50" fill="none" xmlns="http://www.w3.org/2000/svg">
<circle cx="25" cy="25" r="25" fill="#828282"/>
<path d="M24.9994 12.2926C29.1382 12.2926 29.6279 12.3086 31.2626 12.3831C32.7737 12.452 33.5944 12.7042 34.1408 12.9165C34.8643 13.1977 35.3805 13.5336 35.9232 14.0756C36.4658 14.6183 36.8017 15.1345 37.0823 15.858C37.2945 16.4043 37.5468 17.2251 37.6157 18.7361C37.6902 20.3702 37.7062 20.8606 37.7062 24.9994C37.7062 29.1382 37.6902 29.6279 37.6157 31.2626C37.5468 32.7737 37.2945 33.5944 37.0823 34.1408C36.8011 34.8643 36.4652 35.3805 35.9232 35.9232C35.3805 36.4658 34.8643 36.8017 34.1408 37.0823C33.5944 37.2945 32.7737 37.5468 31.2626 37.6157C29.6285 37.6901 29.1382 37.7061 24.9994 37.7061C20.8606 37.7061 20.3702 37.6901 18.7361 37.6157C17.2251 37.5468 16.4043 37.2945 15.858 37.0823C15.1345 36.8011 14.6183 36.4652 14.0756 35.9232C13.533 35.3805 13.197 34.8643 12.9165 34.1408C12.7042 33.5944 12.452 32.7737 12.3831 31.2626C12.3086 29.6285 12.2926 29.1382 12.2926 24.9994C12.2926 20.8606 12.3086 20.3709 12.3831 18.7361C12.452 17.2251 12.7042 16.4043 12.9165 15.858C13.1977 15.1345 13.5336 14.6183 14.0756 14.0756C14.6183 13.533 15.1345 13.197 15.858 12.9165C16.4043 12.7042 17.2251 12.452 18.7361 12.3831C20.3709 12.3086 20.8606 12.2926 24.9994 12.2926ZM24.9994 9.5C20.7898 9.5 20.262 9.51784 18.6088 9.59352C16.9593 9.66858 15.8328 9.93068 14.8465 10.314C13.8271 10.7102 12.9626 11.2399 12.1013 12.1019C11.2399 12.9632 10.7096 13.8277 10.314 14.8465C9.93068 15.8328 9.66858 16.9593 9.59352 18.6088C9.51784 20.262 9.5 20.7898 9.5 24.9994C9.5 29.2089 9.51784 29.7368 9.59352 31.39C9.66858 33.0395 9.93068 34.166 10.314 35.1522C10.7102 36.1717 11.2399 37.0361 12.1019 37.8975C12.9639 38.7595 13.8277 39.2892 14.8471 39.6854C15.8328 40.0687 16.9599 40.3308 18.6094 40.4059C20.2626 40.4815 20.7905 40.4994 25 40.4994C29.2095 40.4994 29.7374 40.4815 31.3906 40.4059C33.0401 40.3308 34.1672 40.0687 35.1529 39.6854C36.1723 39.2892 37.0368 38.7595 37.8981 37.8975C38.7601 37.0355 39.2898 36.1717 39.686 35.1522C40.0693 34.1666 40.3314 33.0395 40.4065 31.39C40.4822 29.7368 40.5 29.2089 40.5 24.9994C40.5 20.7898 40.4822 20.262 40.4065 18.6088C40.3314 16.9593 40.0693 15.8322 39.686 14.8465C39.2898 13.8271 38.7601 12.9626 37.8981 12.1013C37.0361 11.2393 36.1723 10.7096 35.1529 10.3134C34.166 9.93068 33.0395 9.66858 31.39 9.59352C29.7368 9.51784 29.2089 9.5 24.9994 9.5Z" fill="white"/>
<path d="M24.9993 17.0405C20.6034 17.0405 17.0404 20.6041 17.0404 24.9994C17.0404 29.3948 20.604 32.9583 24.9993 32.9583C29.3947 32.9583 32.9582 29.3948 32.9582 24.9994C32.9582 20.6041 29.3953 17.0405 24.9993 17.0405ZM24.9993 30.1657C22.1458 30.1657 19.8331 27.8523 19.8331 24.9994C19.8331 22.1459 22.1464 19.8331 24.9993 19.8331C27.8522 19.8331 30.1656 22.1465 30.1656 24.9994C30.1656 27.8529 27.8529 30.1657 24.9993 30.1657Z" fill="white"/>
<path d="M33.2732 18.5855C34.3004 18.5855 35.1331 17.7528 35.1331 16.7256C35.1331 15.6984 34.3004 14.8657 33.2732 14.8657C32.246 14.8657 31.4133 15.6984 31.4133 16.7256C31.4133 17.7528 32.246 18.5855 33.2732 18.5855Z" fill="white"/>
</svg>
