<svg width="50" height="50" viewBox="0 0 50 50" fill="none" xmlns="http://www.w3.org/2000/svg">
<path d="M25 50C38.8071 50 50 38.8071 50 25C50 11.1929 38.8071 0 25 0C11.1929 0 0 11.1929 0 25C0 38.8071 11.1929 50 25 50Z" fill="#828282"/>
<path d="M20.4263 38.1862C31.5113 38.1862 37.5738 29.0025 37.5738 21.0387C37.5738 20.7775 37.5688 20.5175 37.5563 20.26C38.7325 19.4087 39.7563 18.3475 40.5625 17.14C39.4825 17.62 38.32 17.9425 37.1013 18.0887C38.345 17.3425 39.3013 16.1625 39.7513 14.755C38.5863 15.445 37.2975 15.9475 35.925 16.2175C34.825 15.0462 33.2588 14.3137 31.5263 14.3137C28.1975 14.3137 25.4988 17.0125 25.4988 20.34C25.4988 20.8125 25.5513 21.2725 25.655 21.7137C20.6463 21.4625 16.205 19.0637 13.2325 15.4175C12.715 16.3075 12.4163 17.3425 12.4163 18.4462C12.4163 20.5375 13.48 22.3825 15.0988 23.4625C14.11 23.4325 13.1813 23.16 12.3688 22.7087C12.3675 22.7337 12.3675 22.7587 12.3675 22.785C12.3675 25.7037 14.445 28.1412 17.2025 28.6937C16.6963 28.8312 16.1638 28.9062 15.6138 28.9062C15.225 28.9062 14.8475 28.8675 14.4813 28.7975C15.2488 31.1912 17.4738 32.9337 20.1113 32.9837C18.0488 34.6 15.45 35.5637 12.6263 35.5637C12.14 35.5637 11.66 35.5362 11.1888 35.48C13.855 37.1887 17.0213 38.1862 20.4263 38.1862Z" fill="white"/>
</svg>
